<?xml version="1.0" standalone="no"?>
<!DOCTYPE svg PUBLIC "-//W3C//DTD SVG 20010904//EN"
 "http://www.w3.org/TR/2001/REC-SVG-20010904/DTD/svg10.dtd">
<svg version="1.0" xmlns="http://www.w3.org/2000/svg"
 width="512.000000pt" height="512.000000pt" viewBox="0 0 512.000000 512.000000"
 preserveAspectRatio="xMidYMid meet">
<metadata>
Created by potrace 1.11, written by Peter Selinger 2001-2013
</metadata>
<g transform="translate(0.000000,512.000000) scale(0.100000,-0.100000)"
fill="#000000" stroke="none">
<path d="M2308 5109 c-321 -35 -592 -112 -864 -245 -255 -124 -498 -298 -694
-495 -57 -57 -153 -163 -180 -199 -14 -18 -29 -38 -35 -44 -82 -92 -246 -369
-323 -546 -61 -142 -131 -351 -146 -443 -3 -15 -7 -35 -10 -45 -3 -9 -7 -34
-11 -56 -3 -21 -7 -41 -9 -45 -4 -6 -12 -72 -26 -201 -8 -85 -5 -454 4 -515 4
-22 13 -80 21 -130 109 -675 495 -1290 1050 -1677 225 -157 470 -276 730 -357
123 -38 289 -74 405 -87 30 -3 76 -10 103 -14 48 -7 471 -5 517 4 14 2 45 7
70 10 25 4 92 16 150 27 58 12 115 23 128 25 38 7 320 103 370 125 441 198
783 468 1056 834 168 225 277 431 368 694 62 180 97 340 127 576 11 83 5 520
-7 588 -5 28 -5 70 1 105 14 84 13 414 -2 505 -19 119 -21 126 -42 210 -39
154 -140 396 -204 491 -14 20 -25 41 -25 46 0 6 -4 10 -10 10 -5 0 -10 5 -10
10 0 22 -152 210 -242 300 -88 88 -236 207 -323 261 -159 97 -368 187 -535
229 -103 26 -110 28 -284 49 -72 9 -343 6 -411 -4 -58 -9 -101 -8 -205 3 -92
11 -410 11 -502 1z"/>
</g>
</svg>
